<svg width="58" height="59" viewBox="0 0 58 59" fill="none" xmlns="http://www.w3.org/2000/svg">
<g clip-path="url(#clip0_277_98)">
<path d="M29.4536 8.15557L29.5064 8.18197H29.5655H50.7451C54.6042 8.18197 57.7451 11.3229 57.7451 15.182V54.2653C57.7451 55.2318 56.9616 56.0153 55.9951 56.0153H1.99512C1.02862 56.0153 0.245117 55.2318 0.245117 54.2653V10.3486C0.245117 6.48954 3.38602 3.34863 7.24512 3.34863H19.8398L29.4536 8.15557ZM18.8699 7.70836L18.8171 7.68197H18.7581H7.24512C5.77563 7.68197 4.57845 8.8764 4.57845 10.3486V15.5986C4.57845 16.8413 5.58581 17.8486 6.82845 17.8486H51.1618C52.4044 17.8486 53.4118 16.8413 53.4118 15.5986V15.182C53.4118 13.7097 52.2146 12.5153 50.7451 12.5153H28.4838L18.8699 7.70836ZM23.5218 42.5698L23.5217 42.5697L18.2945 37.3424C17.4485 36.4964 17.4485 35.1248 18.2945 34.2788C19.1405 33.4328 20.5121 33.4328 21.3581 34.2788L26.5853 39.5061L26.7614 39.6821L26.9382 39.5068L37.2273 29.3005C38.0762 28.4585 39.4462 28.4612 40.2916 29.3067C41.1395 30.1546 41.1395 31.5293 40.2916 32.3772L30.0992 42.5697C28.2875 44.3814 25.3332 44.3835 23.5218 42.5698ZM4.57845 49.432C4.57845 50.6746 5.58581 51.682 6.82845 51.682H51.1618C52.4044 51.682 53.4118 50.6746 53.4118 49.432V24.432C53.4118 23.1893 52.4044 22.182 51.1618 22.182H6.82845C5.58581 22.182 4.57845 23.1893 4.57845 24.432V49.432Z" fill="black" stroke="white" stroke-width="0.5"/>
</g>
<defs>
<clipPath id="clip0_277_98">
<rect width="58" height="58" fill="white" transform="translate(-0.00488281 0.681885)"/>
</clipPath>
</defs>
</svg>
