<svg width="58" height="59" viewBox="0 0 58 59" fill="none" xmlns="http://www.w3.org/2000/svg">
<g clip-path="url(#clip0_277_93)">
<path d="M33.8328 0.912616H33.8331C37.4545 0.912556 41.0284 1.73567 44.2849 3.31975C47.5414 4.90383 50.3951 7.20742 52.6306 10.0564C54.866 12.9054 56.4245 16.2253 57.1884 19.7651C57.9523 23.305 57.9016 26.9721 57.04 30.4895C56.1784 34.0068 54.5286 37.2823 52.2152 40.0683C49.9018 42.8544 46.9854 45.0781 43.6863 46.5715C40.3873 48.0648 36.7919 48.7887 33.172 48.6885C29.552 48.5882 26.0023 47.6664 22.7909 45.9927L22.6283 45.9079L22.4986 46.0376L14.9995 53.5367C12.3637 56.1725 8.09027 56.1727 5.45414 53.5372L5.10766 53.1908C2.47127 50.5551 2.47081 46.2811 5.10663 43.6448L12.6079 36.142L12.7378 36.0121L12.6526 35.8494C10.748 32.209 9.81518 28.1385 9.94451 24.032C10.0738 19.9254 11.2609 15.9218 13.3909 12.4084C15.5208 8.895 18.5216 5.99085 22.1027 3.97695C25.6839 1.96304 29.7242 0.907556 33.8328 0.912616ZM53.402 24.815V24.8148C53.4025 20.9438 52.255 17.1595 50.1046 13.9407C47.9543 10.7218 44.8977 8.21296 41.3214 6.73136C37.7452 5.24975 33.8098 4.86197 30.0132 5.61705C26.2165 6.37214 22.729 8.23617 19.9918 10.9734C17.2545 13.7106 15.3905 17.1981 14.6354 20.9948C13.8803 24.7915 14.2681 28.7268 15.7497 32.3031C17.2313 35.8794 19.7402 38.936 22.959 41.0863C26.1779 43.2366 29.9621 44.3841 33.8332 44.3836H33.8333C39.0221 44.3797 43.9972 42.3168 47.6661 38.6478C51.3351 34.9788 53.3981 30.0037 53.402 24.815ZM9.34331 51.3034C9.83152 51.7912 10.6227 51.7911 11.1108 51.303L17.9533 44.4606C18.4781 43.9357 18.4273 43.0837 17.8862 42.5979C17.2399 42.0178 16.6254 41.4033 16.0452 40.7571C15.5594 40.2158 14.7073 40.1651 14.1825 40.6901L7.34032 47.5343C6.85216 48.0226 6.85236 48.8142 7.34076 49.3022L9.34331 51.3034ZM45.9165 25.0503C47.1269 25.0503 48.0767 26.0291 47.8857 27.1643C47.5531 29.1415 46.8053 31.0353 45.6816 32.7172C44.1158 35.0606 41.8902 36.887 39.2864 37.9656C36.6825 39.0441 33.8173 39.3263 31.0531 38.7765C28.2889 38.2266 25.7498 36.8695 23.7569 34.8766C21.764 32.8837 20.4068 30.3446 19.8569 27.5803C19.3071 24.8161 19.5893 21.9509 20.6679 19.347C21.7464 16.7432 23.5729 14.5177 25.9163 12.9518C27.5981 11.8281 29.4919 11.0804 31.4691 10.7477C32.6043 10.5568 33.5831 11.5066 33.5831 12.717C33.5831 13.9029 32.5995 14.8804 31.3797 15.1919C30.2969 15.4684 29.2628 15.9274 28.3237 16.5549C26.6929 17.6445 25.4219 19.1933 24.6713 21.0053C23.9208 22.8174 23.7244 24.8113 24.107 26.7349C24.4897 28.6586 25.4341 30.4256 26.821 31.8124C28.2079 33.1993 29.9748 34.1438 31.8985 34.5264C33.8221 34.909 35.816 34.7127 37.6281 33.9621C39.4401 33.2115 40.9889 31.9405 42.0785 30.3097C42.706 29.3706 43.165 28.3365 43.4415 27.2537C43.753 26.0339 44.7305 25.0503 45.9165 25.0503Z" fill="black" stroke="white" stroke-width="0.5"/>
</g>
<defs>
<clipPath id="clip0_277_93">
<rect width="58" height="58" fill="white" transform="translate(0 0.681885)"/>
</clipPath>
</defs>
</svg>
