<svg width="58" height="59" viewBox="0 0 58 59" fill="none" xmlns="http://www.w3.org/2000/svg">
<g clip-path="url(#clip0_277_74)">
<path d="M45.675 0.93263L45.6772 0.93261C48.8469 0.904206 51.8983 2.13455 54.1617 4.35361C56.4248 6.57233 57.7153 9.59821 57.75 12.7673V46.598C57.7153 49.767 56.4248 52.7929 54.1617 55.0116C51.8983 57.2307 48.8469 58.461 45.6772 58.4326H45.675L12.325 58.4326L12.3228 58.4326C9.15314 58.461 6.10174 57.2307 3.8383 55.0116C1.57519 52.7929 0.284712 49.767 0.25 46.5979V39.3493C0.25 38.7746 0.478273 38.2235 0.884602 37.8172C1.29093 37.4109 1.84203 37.1826 2.41667 37.1826C2.9913 37.1826 3.5424 37.4109 3.94873 37.8172C4.35506 38.2235 4.58333 38.7746 4.58333 39.3493L4.58329 46.5993L4.58337 46.6037C4.61887 48.624 5.45425 50.5477 6.90628 51.9529C8.35782 53.3577 10.3071 54.1295 12.3268 54.0993H45.6732C47.6929 54.1295 49.6422 53.3577 51.0937 51.9529C52.5457 50.5477 53.3811 48.624 53.4166 46.6037H53.4167V46.5993L53.4167 12.766L53.4166 12.7616C53.3811 10.7412 52.5457 8.81749 51.0937 7.4123C49.6422 6.00756 47.6928 5.23573 45.6731 5.26595H12.3269C10.3072 5.23573 8.35785 6.00756 6.90628 7.4123C5.45425 8.81749 4.61887 10.7412 4.58337 12.7616L4.58333 12.7616V12.766V20.016C4.58333 20.5906 4.35506 21.1417 3.94873 21.548C3.5424 21.9543 2.9913 22.1826 2.41667 22.1826C1.84203 22.1826 1.29093 21.9543 0.884602 21.548C0.478273 21.1417 0.25 20.5906 0.25 20.016V12.7673C0.284712 9.59824 1.57519 6.57234 3.8383 4.35361C6.10174 2.13455 9.15314 0.904206 12.3228 0.93261V0.93262H12.325L45.675 0.93263Z" fill="black" stroke="white" stroke-width="0.5"/>
<path d="M41.7144 32.2028L42.1426 31.7747L41.5371 31.7761L9.66667 31.8486C9.66649 31.8486 9.66631 31.8486 9.66613 31.8486C9.09169 31.8484 8.5408 31.6202 8.1346 31.214C7.72827 30.8076 7.5 30.2565 7.5 29.6819C7.5 29.1073 7.72827 28.5562 8.1346 28.1498C8.54093 27.7435 9.09203 27.5152 9.66667 27.5152L9.66724 27.5152L41.3957 27.4427L41.9972 27.4414L41.5719 27.016L31.2751 16.7168C31.2746 16.7163 31.2741 16.7158 31.2736 16.7153C30.8799 16.3068 30.662 15.7602 30.6669 15.1928C30.6719 14.6247 30.8997 14.0812 31.3015 13.6795C31.7032 13.2778 32.2466 13.0499 32.8147 13.045C33.3821 13.0401 33.9287 13.2579 34.3372 13.6516C34.3377 13.6521 34.3382 13.6526 34.3387 13.6531L45.4136 24.7329L45.5904 24.5561L45.4136 24.7329C46.7259 26.0456 47.4631 27.8257 47.4631 29.6819C47.4631 31.538 46.7259 33.3182 45.4136 34.6309C45.4136 34.6309 45.4136 34.6309 45.4136 34.6309L34.3308 45.7137L34.3308 45.7137L34.3278 45.7168C34.1279 45.9237 33.8888 46.0888 33.6245 46.2024C33.3601 46.3159 33.0758 46.3757 32.7881 46.3782C32.5004 46.3807 32.2151 46.3259 31.9489 46.2169C31.6826 46.108 31.4407 45.9471 31.2372 45.7437C31.0338 45.5402 30.8729 45.2983 30.764 45.032C30.655 44.7658 30.6002 44.4805 30.6027 44.1928C30.6052 43.9051 30.665 43.6208 30.7785 43.3564C30.8921 43.0921 31.0572 42.853 31.2641 42.6531L31.2641 42.6532L31.2672 42.6501L41.7144 32.2028Z" fill="black" stroke="white" stroke-width="0.5"/>
</g>
<defs>
<clipPath id="clip0_277_74">
<rect width="58" height="58" fill="white" transform="translate(0 0.682129)"/>
</clipPath>
</defs>
</svg>
