<svg width="58" height="59" viewBox="0 0 58 59" fill="none" xmlns="http://www.w3.org/2000/svg">
<g clip-path="url(#clip0_277_80)">
<path d="M52.2919 40.3955L52.5032 40.3606L52.42 40.5331C54.4397 41.5074 56.0453 43.1705 56.9481 45.2231C57.8509 47.2758 57.9916 49.5832 57.3449 51.7303C56.6981 53.8774 55.3064 55.7233 53.4201 56.9357C51.5338 58.1482 49.2767 58.6478 47.0549 58.3445C44.8331 58.0413 42.7924 56.9551 41.3 55.2814C39.8118 53.6124 38.9662 51.4684 38.9143 49.2332C38.9175 49.0873 38.9175 48.9415 38.9142 48.796C38.9628 46.7019 39.7086 44.6792 41.04 43.0518C42.4598 41.3162 44.4525 40.1442 46.6594 39.7468L47.0856 39.67L46.806 39.3393C46.1024 38.5073 45.226 37.8385 44.2378 37.3796C43.2495 36.9206 42.1731 36.6825 41.0835 36.6818H41.0833H31.4166H31.1666V36.9318V39.6554V39.8491L31.3541 39.8975C33.5733 40.4705 35.5073 41.8331 36.7937 43.7301C37.8149 45.236 38.3722 46.9967 38.4141 48.7961C38.411 48.9389 38.4109 49.0819 38.414 49.2252C38.414 49.2279 38.4141 49.2305 38.4141 49.2331C38.4067 49.5557 38.3826 49.879 38.3416 50.2017C38.0528 52.4754 36.9447 54.5657 35.2249 56.0808C33.5052 57.5959 31.2919 58.4318 29 58.4318C26.708 58.4318 24.4947 57.5959 22.775 56.0808C21.0553 54.5657 19.9472 52.4754 19.6584 50.2017C19.6175 49.8801 19.5935 49.5581 19.5859 49.2367C19.5859 49.2353 19.5859 49.2339 19.586 49.2325C19.5891 49.0879 19.589 48.9436 19.5857 48.7997C19.6269 46.999 20.1844 45.237 21.2063 43.7301C22.4926 41.8331 24.4266 40.4705 26.6458 39.8975L26.8333 39.8491V39.6554V36.9318V36.6818H26.5833H16.9166H16.9163C15.826 36.6834 14.7493 36.9227 13.761 37.3829C12.7727 37.8432 11.8966 38.5134 11.1938 39.3468L10.915 39.6774L11.3406 39.754C13.5475 40.1515 15.5401 41.3234 16.96 43.059C18.2906 44.6855 19.0364 46.707 19.0856 48.7998C19.0825 48.9453 19.0825 49.091 19.0858 49.2369C19.0346 51.4734 18.1889 53.6188 16.6999 55.2887C15.2075 56.9623 13.1669 58.0485 10.9451 58.3518C8.72326 58.655 6.46617 58.1555 4.57985 56.943C2.69353 55.7305 1.3018 53.8847 0.655052 51.7376C0.00830405 49.5905 0.148989 47.283 1.0518 45.2304C1.95461 43.1778 3.56027 41.5147 5.57993 40.5403L5.67437 40.4948L5.70805 40.3955C6.5029 38.0522 8.01107 36.0163 10.0212 34.5732C12.0313 33.1301 14.4426 32.3522 16.917 32.3485H26.5833H26.8333V32.0985V29.4788V29.2675L26.625 29.2323C23.1019 28.6368 19.9311 26.7395 17.7409 23.9164C15.5508 21.0934 14.5011 17.5505 14.7999 13.99C15.0987 10.4294 16.7242 7.11108 19.3542 4.69251C21.9843 2.27393 25.4269 0.931641 29 0.931641C32.573 0.931641 36.0157 2.27393 38.6457 4.69251C41.2758 7.11108 42.9013 10.4294 43.2001 13.99C43.4988 17.5505 42.4492 21.0934 40.259 23.9164C38.0688 26.7395 34.898 28.6368 31.375 29.2323L31.1666 29.2675V29.4788V32.0985V32.3485H31.4166H41.0829C43.5574 32.3522 45.9687 33.1301 47.9788 34.5732C49.9889 36.0163 51.497 38.0522 52.2919 40.3955ZM20.7546 9.67243C19.6649 11.3032 19.0833 13.2205 19.0833 15.1818C19.0833 17.8119 20.1281 20.3342 21.9878 22.194C23.8476 24.0537 26.3699 25.0985 29 25.0985C30.9613 25.0985 32.8786 24.5169 34.5094 23.4272C36.1402 22.3376 37.4112 20.7888 38.1618 18.9768C38.9123 17.1647 39.1087 15.1708 38.7261 13.2472C38.3435 11.3235 37.399 9.55656 36.0121 8.16969C34.6252 6.78282 32.8583 5.83835 30.9346 5.45571C29.011 5.07308 27.0171 5.26946 25.205 6.02003C23.393 6.7706 21.8442 8.04164 20.7546 9.67243ZM13.8933 51.8393C14.4518 51.0034 14.75 50.0206 14.75 49.0152C14.75 47.667 14.2144 46.374 13.2611 45.4207C12.3078 44.4674 11.0148 43.9318 9.66663 43.9318C8.66125 43.9318 7.67843 44.23 6.84248 44.7885C6.00653 45.3471 5.35499 46.141 4.97025 47.0699C4.5855 47.9987 4.48483 49.0208 4.68097 50.0069C4.87712 50.9929 5.36126 51.8987 6.07217 52.6096C6.78309 53.3205 7.68885 53.8047 8.67492 54.0008C9.66099 54.197 10.6831 54.0963 11.6119 53.7116C12.5408 53.3268 13.3347 52.6753 13.8933 51.8393ZM33.2266 51.8393C33.7852 51.0034 34.0833 50.0206 34.0833 49.0152C34.0833 47.667 33.5477 46.374 32.5944 45.4207C31.6411 44.4674 30.3482 43.9318 29 43.9318C27.9946 43.9318 27.0118 44.23 26.1758 44.7885C25.3399 45.3471 24.6883 46.141 24.3036 47.0699C23.9188 47.9987 23.8182 49.0208 24.0143 50.0069C24.2105 50.9929 24.6946 51.8987 25.4055 52.6096C26.1164 53.3205 27.0222 53.8047 28.0083 54.0008C28.9943 54.197 30.0164 54.0963 30.9453 53.7116C31.8741 53.3268 32.668 52.6753 33.2266 51.8393ZM45.5091 53.2418C46.3451 53.8004 47.3279 54.0985 48.3333 54.0985C49.6815 54.0985 50.9744 53.5629 51.9278 52.6096C52.8811 51.6563 53.4166 50.3634 53.4166 49.0152C53.4166 48.0098 53.1185 47.027 52.5599 46.191C52.0014 45.3551 51.2075 44.7035 50.2786 44.3188C49.3498 43.934 48.3277 43.8334 47.3416 44.0295C46.3555 44.2257 45.4498 44.7098 44.7388 45.4207C44.0279 46.1316 43.5438 47.0374 43.3476 48.0235C43.1515 49.0095 43.2522 50.0316 43.6369 50.9605C44.0217 51.8893 44.6732 52.6832 45.5091 53.2418Z" fill="black" stroke="white" stroke-width="0.5"/>
</g>
<defs>
<clipPath id="clip0_277_80">
<rect width="58" height="58" fill="white" transform="translate(0 0.681641)"/>
</clipPath>
</defs>
</svg>
