<svg width="45" height="33" viewBox="0 0 45 33" fill="none" xmlns="http://www.w3.org/2000/svg">
<path fill-rule="evenodd" clip-rule="evenodd" d="M13.1836 16.4906C13.1836 17.0456 13.2129 17.5939 13.27 18.134C14.0922 25.9135 20.6839 31.9946 28.6679 31.9946C37.2062 31.9946 44.1522 25.0397 44.1522 16.4906C44.1522 7.9414 37.2062 0.952637 28.6679 0.952637V2.24464C36.4939 2.24464 42.8619 8.65458 42.8619 16.4906C42.8619 24.3266 36.4939 30.7026 28.6679 30.7026C21.3969 30.7026 15.3845 25.1989 14.5683 18.134C14.506 17.5947 14.474 17.0463 14.474 16.4906H13.1836Z" fill="#04071A"/>
<path d="M27.3776 2.24464H28.6679V0.952637H27.3776V2.24464Z" fill="#04071A"/>
<path d="M28.7239 16.4906H35.1757V17.7826H31.3046H28.7239V16.4906Z" fill="#04071A"/>
<path d="M28.6679 16.4906V7.44656H27.3776V17.7826H28.6679V16.4906Z" fill="#04071A"/>
<path d="M13.1836 16.4906H14.474M13.1836 16.4906C13.1836 17.0456 13.2129 17.5939 13.27 18.134M13.1836 16.4906L13.27 18.134M28.6679 0.952637C37.2062 0.952637 44.1522 7.9414 44.1522 16.4906C44.1522 25.0397 37.2062 31.9946 28.6679 31.9946C20.6839 31.9946 14.0922 25.9135 13.27 18.134M28.6679 0.952637H27.3776V2.24464H28.6679M28.6679 0.952637V2.24464M28.6679 2.24464C36.4939 2.24464 42.8619 8.65458 42.8619 16.4906C42.8619 24.3266 36.4939 30.7026 28.6679 30.7026C21.3969 30.7026 15.3845 25.1989 14.5683 18.134M14.474 16.4906C14.474 17.0463 14.506 17.5947 14.5683 18.134M14.474 16.4906L14.5683 18.134M28.6679 16.4906V7.44656H27.3776V17.7826H28.6679V16.4906ZM35.1757 16.4906H28.7239V17.7826H31.3046H35.1757V16.4906Z" stroke="black"/>
<path d="M9.99985 17.8499L4.05562 17.8499L11.1162 15.6371L4.65417 11.7283L11.69 13.6376L8.98215 7.22465L13.1696 12.4486L15.1246 6.26245L15.4472 13.054L20.8203 8.73605L16.6972 14.6133L23.7291 13.962L17.2146 16.3769L22.6623 19.8189L17.1398 18.36" stroke="#EBAD00"/>
<path d="M16.8467 20.3906L19.4378 22.026" stroke="#EBAD00" stroke-width="0.75"/>
<path d="M22.7354 16.5562L25.2621 16.8331" stroke="#EBAD00" stroke-width="0.75"/>
<path d="M21.2002 11.7646L23.693 10.4026" stroke="#EBAD00" stroke-width="0.75"/>
<path d="M7.99983 10.568L5.5752 8.1543" stroke="#EBAD00" stroke-width="0.75"/>
<path d="M2.85449 14.4082L5.47838 14.7503" stroke="#EBAD00" stroke-width="0.75"/>
<path d="M7.08105 20.9629L10.3762 19.6383" stroke="#EBAD00" stroke-width="0.75"/>
<path d="M13.1836 16.4907H14.474L14.5683 18.1342H13.27C13.2129 17.5941 13.1836 17.0457 13.1836 16.4907Z" fill="#D14400"/>
<path d="M13.1836 16.4907H14.474M13.1836 16.4907C13.1836 17.0457 13.2129 17.5941 13.27 18.1342M13.1836 16.4907L13.27 18.1342M14.474 16.4907C14.474 17.0465 14.506 17.5949 14.5683 18.1342M14.474 16.4907L14.5683 18.1342M13.27 18.1342H14.5683" stroke="#FC0909"/>
</svg>
